<svg width="25" height="23" viewBox="0 0 25 23" fill="none" xmlns="http://www.w3.org/2000/svg">
<path d="M17.474 4.00033L21.3889 7.91526C21.5538 8.08019 21.5538 8.34928 21.3889 8.51421L11.9097 17.9934L7.88195 18.4404C7.34375 18.5012 6.88802 18.0455 6.94879 17.5073L7.39583 13.4795L16.875 4.00033C17.0399 3.83539 17.309 3.83539 17.474 4.00033ZM24.5052 3.0064L22.3872 0.888346C21.7274 0.228624 20.6554 0.228624 19.9913 0.888346L18.4549 2.4248C18.2899 2.58974 18.2899 2.85883 18.4549 3.02376L22.3698 6.93869C22.5347 7.10362 22.8038 7.10362 22.9688 6.93869L24.5052 5.40224C25.1649 4.73817 25.1649 3.66612 24.5052 3.0064ZM16.6667 15.4153V19.8337H2.77778V5.94477H12.7517C12.8906 5.94477 13.0208 5.88835 13.1207 5.79286L14.8568 4.05675C15.1866 3.72689 14.9523 3.16699 14.4878 3.16699H2.08333C0.93316 3.16699 0 4.10015 0 5.25033V20.5281C0 21.6783 0.93316 22.6114 2.08333 22.6114H17.3611C18.5113 22.6114 19.4444 21.6783 19.4444 20.5281V13.6791C19.4444 13.2147 18.8846 12.9847 18.5547 13.3102L16.8186 15.0463C16.7231 15.1462 16.6667 15.2764 16.6667 15.4153Z" fill="#515151"/>
</svg>
